<?xml version="1.0" encoding="utf-8"?>
<!-- Generator: Adobe Illustrator 26.2.1, SVG Export Plug-In . SVG Version: 6.00 Build 0)  -->
<svg version="1.1" id="Layer_1" xmlns="http://www.w3.org/2000/svg" xmlns:xlink="http://www.w3.org/1999/xlink" x="0px" y="0px"
	 viewBox="0 0 512 512" style="enable-background:new 0 0 512 512;" xml:space="preserve">
<style type="text/css">
	.st0{fill:#FFFFFF;}
</style>
<path class="st0" d="M62,19c-22.5,0-41,18.5-41,41s18.5,41,41,41s41-18.5,41-41S84.5,19,62,19z M233,29c-17-0.9-53,72.1-53.8,113.3
	c-0.7,32.5,38,56.9,38.7,89.4c0.9,36.2-28.5,59-38.4,101.5c-4.5,15.5,7.9,38.3,15.1,50c5.7,9.1,12.2,16.7,18.7,21.8
	c-6.2-28.9-5.2-59.3-0.2-87.7c3.3-18.5,13.9-33.7,22.5-47.8s15.1-26.9,14.4-39.8c-0.8-13.5-10.4-26.1-22.1-40
	c-11.7-13.9-25.4-29-28.3-49.5c-2.2-17.2,6.5-40.2,12.6-57.1l16.6,7c-6.5,16-11,30.3-11.4,47.6c1.9,13.6,12.5,26.4,24.3,40.5
	c11.8,14.1,25,29.6,26.2,50.5c1.1,19.4-8,35.6-17,50.3c-8.9,14.7-17.8,28.2-20.1,41.6c-5.6,31.7-5.6,65.6,3.9,95.4
	c3.2,10.2,9.4,22.9,16.7,35.6c1.1-2.6,2-5.2,2.7-7.9c2.6-9.5,2.4-19.8-0.6-24.1l14.9-10.1c8.2,12.1,6.4,26.8,3,39
	c-1.7,6.1-3.9,11.6-6.3,16c-0.9,1.7-1.9,3.3-3,4.8c2,3.1,4,6.1,6.1,9.1c3.6,5.3,7.4,10.5,11.3,15.6h32.7
	c11.1-41.7-56.4-96.9-56.7-147.1c-0.2-41.7,40-78.8,34.8-120.2c-4.2-32.8-41.1-53.7-50.7-85.4c-10.9-35.9,8.3-109.4-6-112.2
	C233.5,29,233.2,29,233,29L233,29z M85,60c0,12.8-10.2,23-23,23S39,72.8,39,60c0-0.1,0-0.2,0-0.4c2.8,2,6.2,3.2,9.9,3.2
	c9.3,0,17-7.7,17-17c0-3.2-0.9-6.2,4.3-7.2C75.5,37.7,85,47.6,85,60z M332.5,77.3c-18.1,0-33,14.9-33,33c0,18.1,14.9,33,33,33
	c18.1,0,33-14.9,33-33C365.5,92.2,350.6,77.3,332.5,77.3z M337.8,96.3c5.7,2.1,9.7,7.5,9.7,14c0,8.4-6.6,15-15,15
	c-7.8,0-14-5.7-14.9-13.2c1.7,0.7,3.5,1.1,5.5,1.1c8.1,0,14.9-6.8,14.9-14.9C338,97.6,337.9,97,337.8,96.3L337.8,96.3z M300.5,141.3
	c-9.3,0-17,7.7-17,17c0,9.3,7.7,17,17,17c9.3,0,17-7.7,17-17C317.5,149,309.8,141.3,300.5,141.3z M367.3,165.5c-0.2,0-0.4,0-0.6,0
	c-10.5,1.7,19.3,72,9.7,106.2c-5.6,19.9-33,29.5-37.2,49.8c-4.9,23.5,16.9,46.1,16.4,70.1c-0.7,32.7-42.2,68.2-22.6,94.4
	c5.3,7,11.8-1,18.1-5.7c4.6-4.2,9.1-8.6,13.5-13.1c-1.8-2-3.4-4.1-4.8-6.3c-5.8-9-8.6-19.7-8-30.4l18,1c-0.5,8.3,2.1,14.9,5.2,19.7
	c0.6,0.9,1.2,1.8,1.8,2.5c1.6-2,3.2-4,4.4-5.8c6.2-8.9,11.3-18.2,11.4-25.9c0.2-13.9-9.4-28.6-20-44.7
	c-10.6-16.1-22.4-34.1-19.1-55.8c2-13.1,11.9-20.7,19.6-26.8c7.7-6.2,13.5-11.4,14.8-16.2l17.4,4.8c-3.5,12.5-13.4,19.5-20.9,25.5
	c-7.5,6-12.3,10.8-13.1,15.6c-2.1,13.5,5.9,27.3,16.3,43.1c10.4,15.8,23.2,33.2,23,54.8c-0.2,14.6-8,26.5-14.6,36
	c-8.1,11.7-20.9,24.7-32.7,35.4c-0.1,0.1-0.3,0.2-0.4,0.4h34.9c9.1-3.6,17.3-8.6,23.2-14.7c20.7-21.2,11.7-57.7,4.3-88.7
	c-4.3-18.3-33.2-41.6-32.7-66.2c0.4-19.8,28.2-32.3,28.5-52.1C421.5,233,380.3,165.7,367.3,165.5L367.3,165.5z M79.1,170.6
	c-0.2,0-0.4,0-0.6,0.1c-10.5,1.9,12.9,49.9,9.7,74.9c-2.7,20.8-21.8,37.3-23.9,58.2c-2.7,27.1,17.1,53,15.7,80.2
	c-1.7,33.9-50.7,71.4-31.3,97.7c4.8-4.4,10.6-10.1,16.6-16.6C78.8,450.5,93.2,432,99,418.8c5.2-11.7,6.3-26.2,4.8-40.1
	c-4.1-21.2-19.3-39.9-20.5-59.4c-1.1-20.7,9.2-37.5,11.9-52.1c2.2-11.4,5.1-36.4,5.1-36.4l17.9,2.1c0,0-2.9,24.6-5.3,37.6
	c-3.6,19-12.3,34.4-11.6,47.8c3.1,21.2,18.2,39.2,20.5,58.4c1.7,16,0.7,33.5-6.3,49.3c-7.6,17.2-22.8,35.9-37,51.2
	c-4.5,4.8-9.1,9.5-13.8,14.1c18.1,3.7,43-6.1,55.9-17.6c28.9-25.6,32.2-64,20.9-108.9c-7.2-28.7-22.3-48.9-20.5-74.7
	c1.1-15.7,27.2-25.7,18.6-43.3C125.6,218.1,91.8,170,79.1,170.6L79.1,170.6z M458.8,290c-7.6,0-14.7,2.6-20.3,7
	c-2.1,1.3-3.9,3-5.2,5.1c-4.7,5.7-7.5,13-7.5,20.8c0,18.1,14.9,33,33,33c18.1,0,33-14.9,33-33C491.8,304.9,476.9,290,458.8,290
	L458.8,290z M460.7,308.1c7.5,0.9,13.1,7.1,13.1,14.9c0,8.4-6.6,15-15,15c-7.8,0-14.1-5.8-14.9-13.4c0.7,0.1,1.4,0.2,2.1,0.2
	c8.1,0,14.9-6.8,14.9-14.9C460.9,309.3,460.8,308.7,460.7,308.1L460.7,308.1z M172,379.7c-3.7,46.1,5.9,85.5,35,114.3h50.2
	c-1.3-1.8-2.6-3.6-3.8-5.5c-12.6-18.4-25.6-40.1-33.1-59.4c-17-4.5-30.6-19.5-41.1-36.4C176.7,388.5,174.2,384.1,172,379.7
	L172,379.7z"/>
</svg>
