<?xml version="1.0" encoding="utf-8"?>
<!-- Generator: Adobe Illustrator 26.2.1, SVG Export Plug-In . SVG Version: 6.00 Build 0)  -->
<svg version="1.1" id="Capa_1" xmlns="http://www.w3.org/2000/svg" xmlns:xlink="http://www.w3.org/1999/xlink" x="0px" y="0px"
	 viewBox="0 0 465 465" style="enable-background:new 0 0 465 465;" xml:space="preserve">
<style type="text/css">
	.st0{fill:#FFFFFF;}
</style>
<g>
	<path class="st0" d="M390.8,361h-10c0,0,0,0,0,0h-12.9c-2.5-21.9-15.8-40.5-34.5-50.4c18.6-9.9,31.9-28.5,34.5-50.4h3.7
		c4.1,0,7.5-3.4,7.5-7.5s-3.4-7.5-7.5-7.5h-3.3v-78.5h3.3c4.1,0,7.5-3.4,7.5-7.5s-3.4-7.5-7.5-7.5h-3.3V73.1h3.3
		c4.1,0,7.5-3.4,7.5-7.5s-3.4-7.5-7.5-7.5h-3.7C364.1,25.4,336.4,0,302.8,0H162.2c-33.6,0-61.4,25.4-65.1,58.1h-3.7
		c-4.1,0-7.5,3.4-7.5,7.5s3.4,7.5,7.5,7.5h3.3v78.5h-2.3c-4.1,0-7.5,3.4-7.5,7.5s3.4,7.5,7.5,7.5h2.3v78.5h-2.3
		c-4.1,0-7.5,3.4-7.5,7.5s3.4,7.5,7.5,7.5h2.7c2.5,21.9,15.8,40.5,34.4,50.4c-18.6,9.9-31.9,28.5-34.4,50.4H84.2c0,0,0,0-0.1,0h-10
		c-4.1,0-7.5,3.4-7.5,7.5s3.4,7.5,7.5,7.5h3.2l6.7,66.7C85.3,455,96.4,465,108.8,465h247.5c12.4,0,23.5-10,24.7-22.4l6.7-66.7h3.2
		c4.1,0,7.5-3.4,7.5-7.5S395,361,390.8,361z M111.7,73.1h22.5c4.1,0,7.5-3.4,7.5-7.5s-3.4-7.5-7.5-7.5h-21.9
		c3.6-24.3,24.7-43.1,50-43.1h140.5c25.3,0,46.4,18.7,50,43.1H164.2c-4.1,0-7.5,3.4-7.5,7.5s3.4,7.5,7.5,7.5h189.1v78.5H111.7V73.1z
		 M112.2,260.1h188.6c4.1,0,7.5-3.4,7.5-7.5s-3.4-7.5-7.5-7.5H111.7v-78.5h241.6v78.5h-22.5c-4.1,0-7.5,3.4-7.5,7.5s3.4,7.5,7.5,7.5
		h21.9c-3.5,23.1-22.6,41.1-46.2,42.9c-1.3-0.1-2.5-0.1-3.8-0.1c-0.7,0-1.4,0.1-2,0.3H164.2c-0.6-0.2-1.3-0.3-2-0.3
		c-1.3,0-2.5,0-3.8,0.1C134.8,301.3,115.7,283.2,112.2,260.1z M158.4,318.1c1.3,0.1,2.5,0.1,3.8,0.1h140.5c1.3,0,2.5,0,3.8-0.1
		c23.6,1.8,42.7,19.8,46.2,42.9H112.2C115.7,337.9,134.8,319.8,158.4,318.1z M366,441.1c-0.5,4.7-5,8.9-9.8,8.9H108.8
		c-4.7,0-9.3-4.1-9.8-8.9L92.5,376h280L366,441.1z"/>
	<path class="st0" d="M330,113.1c-10.5,0-20.2-4.9-26.5-13.4c-1.4-1.9-3.7-3-6-3c0,0,0,0,0,0c-2.4,0-4.6,1.1-6,3.1
		c-6.2,8.4-16.1,13.4-26.5,13.4c-10.5,0-20.2-4.9-26.5-13.4c-1.4-1.9-3.7-3-6-3c0,0,0,0,0,0c-2.4,0-4.6,1.1-6,3
		c-6.3,8.5-16,13.4-26.5,13.4c-10.5,0-20.2-4.9-26.5-13.4c-1.4-1.9-3.7-3-6-3c0,0,0,0,0,0c-2.4,0-4.6,1.1-6,3.1
		c-6.2,8.4-16.1,13.4-26.5,13.4c-4.1,0-7.5,3.4-7.5,7.5s3.4,7.5,7.5,7.5c12.1,0,23.7-4.7,32.5-12.8c8.8,8.1,20.4,12.8,32.5,12.8
		c12.1,0,23.7-4.7,32.5-12.8c8.8,8.1,20.4,12.8,32.5,12.8c12.1,0,23.7-4.7,32.5-12.8c8.8,8.1,20.4,12.8,32.5,12.8
		c4.1,0,7.5-3.4,7.5-7.5S334.1,113.1,330,113.1z"/>
</g>
</svg>
