<svg width="64px" height="64px" viewBox="0 0 64 64" id="Layer_1" data-name="Layer 1" xmlns="http://www.w3.org/2000/svg"><defs><style>.cls-1{fill:none;stroke:#fff;stroke-linecap:round;stroke-linejoin:round;stroke-width:2px;}</style></defs><title>toilet, bathroom, restroom, wc</title><polyline class="cls-1" points="38.6 42.82 40.2 52.28 26.34 52.28 26.9 49.13"/><path class="cls-1" d="M26.34,34.35V24A7.11,7.11,0,0,1,32,16.9a7,7,0,0,1,8.17,6.82"/><path class="cls-1" d="M33.3,44.35a10,10,0,0,1-10-10h20a10,10,0,0,1-4.7,8.47"/><path class="cls-1" d="M21.89,28.91V15.06a2.7,2.7,0,0,1,2.69-2.69H41.71A2.68,2.68,0,0,1,44.39,15V28.91A2.7,2.7,0,0,1,41.7,31.6h0a1.5,1.5,0,0,1-1.5-1.5V23.72A7,7,0,0,0,32,16.9,7.11,7.11,0,0,0,26.34,24V31.6"/><circle cx="27.3" cy="46.35" r="1"/></svg>