<svg xmlns="http://www.w3.org/2000/svg" viewBox="0 0 143.98 67.84"><defs><style>.cls-1{fill:#fff;}</style></defs><g id="Layer_2" data-name="Layer 2"><g id="Layer_1-2" data-name="Layer 1"><path class="cls-1" d="M11.76,59.58A33.91,33.91,0,1,1,56.06,8.24a32.26,32.26,0,0,1,2.53,2.43l-1.48,1.4a30.24,30.24,0,0,0-2.39-2.28A31.86,31.86,0,1,0,13.09,58Z"/><path class="cls-1" d="M34,67.84a34.14,34.14,0,0,1-23.63-9.52C10,58,9.28,57.23,9.25,57.2L8,55.84l1.84-.35c.17,0,17.89-3.5,25.93-10.76,5.08-4.58,7.2-9.35,5.83-13.08a6,6,0,0,0-5.32-3.93c-2.2-.06-5.59,1.32-9.81,4a66.56,66.56,0,0,0-5.92,4.2L19.21,37l-.35-1.64c-.07-.35-1.76-8.83,4.69-17.71,4.57-6.28,12-9.51,21.59-9.33a46.07,46.07,0,0,1,13,2.16l-.67,1.93c-.22-.08-22.2-7.45-32.31,6.45a22.85,22.85,0,0,0-4.51,14.36c3.17-2.38,10.73-7.62,15.6-7.49a8,8,0,0,1,7.18,5.26c2.39,6.47-3.66,12.86-6.37,15.31-3.57,3.22-9.19,6.1-16.72,8.54-3.46,1.13-6.5,1.89-8.34,2.31a32,32,0,0,0,26.49,8.37l.3,2A33.07,33.07,0,0,1,34,67.84Z"/><path class="cls-1" d="M48.19,45.66l9.14-8.06c3.85-3.46,5.26-5.4,5.26-7.92a4.82,4.82,0,0,0-5.08-4.82c-2.88,0-4.75,1.51-6.77,4.32l-2.08-1.51c2.26-3.39,4.64-5.37,9.07-5.37s7.81,3,7.81,7.13v.07c0,3.67-2,5.94-6.37,9.79l-6.74,6H65.79v2.59H48.19Z"/><path class="cls-1" d="M69.57,45.48l1.4-2a10.92,10.92,0,0,0,6.45,2.38c2.23,0,3.85-1.15,3.85-3v-.07c0-1.88-2.2-2.6-4.64-3.28-2.92-.83-6.16-1.84-6.16-5.26v-.07c0-3.2,2.66-5.33,6.34-5.33A12.74,12.74,0,0,1,83.5,31l-1.26,2.08a10.59,10.59,0,0,0-5.51-1.8c-2.19,0-3.6,1.16-3.6,2.7V34c0,1.76,2.31,2.44,4.79,3.2,2.88.86,6,2,6,5.33v.07c0,3.53-2.92,5.58-6.63,5.58A12.82,12.82,0,0,1,69.57,45.48Z"/><path class="cls-1" d="M87.89,38.61v-.07c0-5.37,3.78-9.69,8.93-9.69,5.51,0,8.68,4.39,8.68,9.83a6.48,6.48,0,0,1,0,.9H90.7c.4,4,3.24,6.3,6.55,6.3a7.68,7.68,0,0,0,5.87-2.63l1.73,1.55a9.6,9.6,0,0,1-7.67,3.49C92.07,48.29,87.89,44.37,87.89,38.61Zm14.8-1.08c-.29-3.39-2.23-6.34-5.94-6.34-3.24,0-5.69,2.7-6,6.34Z"/><path class="cls-1" d="M109,42.46v-.07c0-3.93,3.24-6,8-6a19.62,19.62,0,0,1,5.72.79v-.65c0-3.35-2-5.08-5.54-5.08a13,13,0,0,0-5.65,1.37l-.83-2.27A15.45,15.45,0,0,1,117.38,29a8.17,8.17,0,0,1,6,2.05,7.34,7.34,0,0,1,1.91,5.43V47.86h-2.67V45.05a8.14,8.14,0,0,1-6.73,3.2C112.45,48.25,109,46.27,109,42.46ZM122.67,41v-1.8a19.26,19.26,0,0,0-5.47-.79c-3.49,0-5.44,1.51-5.44,3.85v.07c0,2.34,2.16,3.71,4.68,3.71C119.86,46.06,122.67,44,122.67,41Z"/><path class="cls-1" d="M129.65,45.48l1.41-2a10.89,10.89,0,0,0,6.44,2.38c2.23,0,3.85-1.15,3.85-3v-.07c0-1.88-2.19-2.6-4.64-3.28-2.92-.83-6.16-1.84-6.16-5.26v-.07c0-3.2,2.67-5.33,6.34-5.33a12.75,12.75,0,0,1,6.7,2.06l-1.27,2.08a10.53,10.53,0,0,0-5.5-1.8c-2.2,0-3.6,1.16-3.6,2.7V34c0,1.76,2.3,2.44,4.79,3.2,2.88.86,6,2,6,5.33v.07c0,3.53-2.92,5.58-6.62,5.58A12.83,12.83,0,0,1,129.65,45.48Z"/></g></g></svg>