<svg id="Layer_1" data-name="Layer 1" xmlns="http://www.w3.org/2000/svg" viewBox="0 0 476.46 500.67"><defs><style>.cls-1,.cls-3{fill:#c3dff4;}.cls-2{fill:#3687ba;}.cls-3{stroke:#c3e0f5;stroke-width:7px;}.cls-3,.cls-4{stroke-miterlimit:10;}.cls-4{fill:none;stroke:#2e3192;stroke-width:6px;}.cls-5{font-size:12px;fill:#231f20;font-family:MyriadPro-Regular, Myriad Pro;}</style></defs><circle class="cls-1" cx="174.83" cy="96.51" r="96.51"/><path class="cls-2" d="M305.21,231.36a5.56,5.56,0,0,1-.15,1.17S274,222.09,258.13,225c-16.64,3.05-19.07,28-34.56,31.45-21.68,4.82-31.23-40.88-54.24-42.55-35.24-2.57-56.7,28.53-56.7,28.53s-.21-1.54-.26-2.54l-.06-1.82A96.51,96.51,0,0,1,305,228.29C305.1,229.31,305.16,230.33,305.21,231.36Z" transform="translate(-33.96 -139.11)"/><circle class="cls-3" cx="376.45" cy="400.66" r="96.51"/><path class="cls-4" d="M121,600.67A96.52,96.52,0,1,1,254.34,461.44" transform="translate(-33.96 -139.11)"/><path class="cls-4" d="M198.06,623.2A96.4,96.4,0,0,1,117,597.09c-1.07-1-3.15-3.19-3.15-3.19s53.05-10.17,77.58-32.31c33.4-30.15,16.77-54.66-.45-55.14s-48.14,24.66-48.14,24.66-5.12-24.34,13.25-49.6c31.35-43.1,98.23-20,98.23-20" transform="translate(-33.96 -139.11)"/><text class="cls-5" transform="translate(0 244.26)">2</text></svg>